<?xml version="1.0" standalone="no"?>
<!DOCTYPE svg PUBLIC "-//W3C//DTD SVG 20010904//EN"
 "http://www.w3.org/TR/2001/REC-SVG-20010904/DTD/svg10.dtd">
<svg version="1.0" xmlns="http://www.w3.org/2000/svg"
 width="4482.000000pt" height="5494.000000pt" viewBox="0 0 4482.000000 5494.000000"
 preserveAspectRatio="xMidYMid meet">

<g transform="translate(0.000000,5494.000000) scale(0.100000,-0.100000)"
fill="#000000" stroke="none">
<path d="M21530 51923 c-1276 -31 -2683 -393 -3920 -1009 -329 -164 -453 -235
-749 -431 -1514 -999 -2598 -2059 -3296 -3223 -142 -237 -349 -653 -443 -890
-128 -322 -227 -653 -291 -970 -30 -150 -74 -430 -68 -436 1 -2 14 18 27 44
169 320 456 745 714 1057 1078 1301 2679 2294 4646 2880 863 257 1614 391
2450 436 242 13 867 7 1075 -11 732 -62 1324 -181 1935 -389 1295 -439 2368
-1217 3036 -2201 209 -308 411 -712 524 -1050 116 -348 208 -782 240 -1135 14
-157 14 -530 0 -675 -65 -649 -299 -1172 -702 -1567 l-104 -102 43 -43 c139
-136 267 -409 327 -697 41 -197 50 -295 51 -537 l0 -231 110 -48 c269 -116
482 -281 616 -479 l44 -65 145 -40 c419 -118 845 -190 1305 -222 174 -12 869
-6 1009 9 l68 7 24 95 c29 116 94 252 161 341 l51 67 -29 58 c-37 77 -49 136
-49 238 0 159 56 274 199 408 51 48 105 88 155 113 42 21 76 39 76 40 0 1 -27
62 -61 136 -33 74 -94 217 -134 319 -187 472 -294 820 -606 1960 -359 1311
-518 1832 -752 2460 -753 2024 -1800 3419 -3327 4437 -658 438 -1469 828
-2160 1038 -455 138 -963 237 -1436 280 -178 16 -635 36 -739 33 -33 -1 -107
-3 -165 -5z"/>
<path d="M28831 50300 c991 -1132 1711 -2465 2302 -4255 168 -510 277 -880
533 -1820 122 -448 233 -834 361 -1254 l25 -84 49 93 c27 50 66 118 88 151
l40 60 -169 619 c-317 1161 -454 1615 -680 2255 -570 1613 -1313 2907 -2281
3970 -70 77 -176 187 -235 245 l-107 105 74 -85z"/>
<path d="M7772 44995 c14 -16 65 -84 113 -149 151 -208 312 -495 445 -791 40
-88 76 -164 80 -169 8 -8 42 -4 162 20 l28 6 -42 76 c-132 243 -298 494 -427
642 -30 36 -130 139 -221 230 -91 91 -153 152 -138 135z"/>
<path d="M39673 44618 c19 -24 56 -74 81 -113 41 -62 53 -72 97 -87 l51 -17
-129 129 c-70 72 -129 130 -131 130 -2 0 12 -19 31 -42z"/>
<path d="M40958 43615 c165 -222 282 -466 346 -724 42 -163 58 -301 58 -496 0
-278 -43 -520 -141 -811 l-41 -121 36 -59 c49 -82 126 -242 167 -349 100 -262
147 -523 147 -813 0 -346 -62 -618 -210 -920 -176 -360 -444 -664 -855 -967
-144 -106 -281 -209 -384 -288 -149 -114 -415 -287 -681 -442 -63 -37 -116
-68 -118 -69 -1 -2 22 -54 52 -117 92 -196 147 -369 183 -574 21 -124 24 -461
5 -580 -69 -428 -357 -1080 -810 -1835 -156 -261 -451 -702 -624 -932 -406
-541 -707 -842 -1018 -1020 -60 -35 -118 -87 -315 -284 -540 -542 -1082 -998
-1724 -1449 -1155 -811 -2552 -1506 -3961 -1971 -146 -48 -266 -88 -268 -89
-1 -1 9 -60 22 -131 21 -111 31 -140 70 -208 57 -99 110 -225 142 -336 54
-185 176 -916 380 -2280 76 -505 78 -519 78 -710 0 -146 -4 -217 -17 -280 -17
-85 -17 -86 13 -295 16 -116 47 -350 70 -522 l41 -312 85 -126 c206 -306 347
-697 400 -1112 22 -174 22 -497 0 -663 -54 -399 -193 -764 -393 -1027 l-54
-72 35 -318 c95 -850 148 -1518 186 -2353 18 -394 29 -1222 21 -1605 l-7 -370
47 -85 c101 -182 189 -417 233 -627 54 -259 96 -550 117 -816 16 -201 7 -702
-15 -867 -51 -380 -145 -696 -287 -969 -91 -175 -143 -250 -317 -462 -44 -52
-29 -67 204 -216 115 -73 212 -133 216 -133 4 0 42 47 86 105 265 354 414 751
488 1300 21 153 30 644 15 831 -34 436 -119 908 -206 1139 -40 107 -93 221
-143 309 l-44 79 1 696 c2 694 -6 1036 -34 1586 -37 707 -100 1448 -182 2153
l-27 232 22 28 c116 145 225 343 297 536 271 732 163 1660 -269 2301 l-85 126
-31 232 c-17 128 -48 364 -71 524 l-40 293 18 92 c12 67 17 144 17 273 0 172
-3 202 -72 665 -147 984 -259 1681 -336 2100 -43 231 -99 394 -192 556 -39 68
-49 97 -71 212 -14 73 -24 134 -22 136 2 2 103 36 224 76 1605 530 3084 1290
4340 2230 525 393 924 739 1385 1200 217 217 256 252 341 302 53 32 134 85
180 119 108 79 426 397 564 564 459 556 982 1374 1311 2050 233 479 350 824
383 1127 38 341 -31 711 -196 1061 -31 64 -54 119 -52 121 2 2 94 57 204 123
271 162 415 257 574 377 73 55 205 153 292 217 204 148 301 226 421 336 433
394 683 861 748 1393 15 124 12 382 -5 517 -38 293 -145 612 -283 847 -29 48
-52 91 -52 96 0 4 22 74 49 156 103 310 135 522 128 834 -4 179 -10 235 -31
337 -65 306 -184 570 -373 825 -44 58 -156 183 -260 288 -170 171 -179 179
-125 105z"/>
<path d="M10399 43220 c71 -98 127 -190 183 -305 54 -109 59 -116 54 -75 -3
25 -8 73 -11 108 l-6 62 -126 128 c-70 71 -112 107 -94 82z"/>
<path d="M10761 42039 c-3 -302 -74 -631 -191 -885 -40 -87 -40 -87 -19 -102
138 -97 331 -290 429 -432 122 -176 427 -527 668 -770 l164 -165 -115 132
c-177 203 -256 302 -326 402 -37 53 -145 177 -252 289 l-187 195 30 66 c39 87
93 244 119 343 l20 80 -62 147 c-85 199 -167 424 -223 616 -26 88 -49 165 -51
170 -2 6 -4 -33 -4 -86z"/>
<path d="M22265 41931 c-132 -34 -239 -154 -291 -327 -25 -82 -26 -293 -1
-384 51 -191 181 -357 317 -405 40 -14 42 -14 93 19 69 44 158 89 233 116 57
20 64 26 87 73 44 91 61 172 61 297 -1 137 -19 219 -76 338 -49 104 -148 209
-229 246 -59 27 -147 39 -194 27z m-30 -207 c25 -10 45 -59 45 -111 0 -117
-107 -177 -160 -90 -58 95 22 236 115 201z m-50 -369 c32 -31 34 -86 5 -115
-26 -26 -36 -25 -65 5 -32 31 -34 86 -5 115 26 26 36 25 65 -5z"/>
<path d="M17953 41222 c-103 -37 -174 -107 -228 -223 -41 -91 -56 -166 -56
-284 0 -190 59 -358 168 -475 l55 -60 97 0 c89 0 160 -7 253 -25 35 -7 40 -4
88 44 61 61 112 163 136 269 22 101 15 278 -16 377 -88 279 -307 445 -497 377z
m17 -217 c49 -52 32 -161 -32 -209 -54 -39 -120 14 -120 97 0 110 91 177 152
112z m-72 -348 c33 -35 38 -77 12 -110 -26 -33 -32 -33 -65 -4 -33 28 -38 86
-10 117 23 26 37 25 63 -3z"/>
<path d="M11910 39577 c0 -2 15 -16 33 -33 l32 -29 -29 33 c-28 30 -36 37 -36
29z"/>
<path d="M12083 39379 c92 -115 212 -293 272 -404 38 -68 49 -80 106 -118 l27
-18 20 36 21 35 -92 112 c-50 62 -169 191 -265 288 l-173 175 84 -106z"/>
<path d="M2125 38363 c193 -191 289 -273 494 -423 78 -58 200 -149 270 -203
129 -100 420 -302 425 -295 9 9 57 110 54 112 -2 2 -93 56 -203 121 -241 143
-512 323 -655 436 -58 45 -161 123 -230 172 -69 50 -170 126 -225 170 l-100
79 170 -169z"/>
<path d="M22515 38092 c-420 -355 -944 -588 -1585 -706 -217 -39 -373 -57
-570 -63 -435 -14 -750 66 -945 240 l-54 48 -73 -63 c-40 -34 -126 -115 -192
-180 l-119 -117 44 -53 c233 -281 570 -513 906 -623 l111 -37 69 54 c192 154
450 304 690 404 484 201 1078 287 1503 219 132 -22 172 -33 164 -48 -15 -27
103 94 170 174 131 155 247 349 319 534 59 149 62 135 -40 182 -96 45 -170 76
-248 103 l-50 17 -100 -85z"/>
<path d="M10940 37937 c0 -32 -146 -303 -238 -443 -296 -448 -726 -954 -1337
-1573 -890 -901 -1837 -1697 -2301 -1933 -143 -73 -255 -108 -372 -116 l-93
-7 117 -130 c250 -280 676 -693 989 -961 1193 -1017 2700 -1850 4350 -2402
221 -74 582 -185 725 -222 47 -13 88 -25 92 -29 4 -3 -4 -53 -18 -111 -96
-407 -283 -1300 -369 -1760 -19 -107 -40 -219 -46 -248 l-11 -53 -34 22 c-19
12 -37 20 -38 18 -5 -6 -110 -619 -160 -934 -49 -303 -120 -800 -161 -1120
l-26 -200 23 -15 c63 -43 61 -17 28 -310 -81 -717 -143 -1536 -170 -2210 -5
-146 -12 -305 -14 -353 -4 -64 -2 -87 7 -86 7 2 91 -23 187 -53 288 -93 396
-125 575 -172 172 -45 719 -181 765 -190 23 -4 59 -12 285 -66 44 -10 94 -21
110 -24 17 -3 110 -23 207 -45 312 -70 927 -196 1353 -276 132 -25 287 -54
345 -65 95 -18 522 -92 595 -104 17 -2 127 -20 245 -40 180 -29 615 -94 740
-110 19 -2 105 -14 190 -25 442 -59 788 -86 1085 -86 301 0 351 12 444 105
171 171 305 596 400 1265 22 149 36 266 45 355 4 30 13 120 21 198 8 79 13
148 10 152 -12 20 20 20 65 1 118 -51 272 -71 790 -106 450 -29 730 -37 1157
-32 431 5 543 13 724 51 106 22 132 31 221 72 43 21 80 35 82 33 2 -2 7 -38
10 -79 28 -330 85 -773 127 -985 11 -55 22 -113 25 -130 3 -16 19 -85 35 -151
72 -297 167 -519 271 -629 73 -79 114 -101 199 -112 63 -8 387 -11 504 -4 165
9 532 43 705 66 19 2 76 9 125 15 141 17 375 49 550 77 88 13 176 27 195 29
19 3 64 9 100 15 36 6 79 13 95 16 270 42 1109 190 1215 214 25 6 58 12 75 15
46 6 902 180 1080 219 88 20 171 38 185 41 40 7 160 34 225 49 33 8 132 30
220 50 371 84 988 241 1210 307 168 50 351 109 363 116 11 7 4 86 -38 418 -75
606 -227 1727 -245 1815 -5 23 -1 28 45 47 34 14 50 27 50 39 0 20 -137 957
-190 1298 -59 382 -171 1052 -196 1178 l-6 27 -54 -31 c-40 -22 -55 -27 -58
-17 -3 7 -16 81 -31 163 -94 535 -234 1259 -366 1899 -39 186 -68 340 -66 342
2 3 94 23 203 45 618 126 1300 325 1969 574 1622 605 3054 1462 4195 2510 249
229 790 787 790 815 0 4 -39 10 -87 13 -163 10 -349 87 -588 244 -359 237
-822 615 -1405 1147 -253 232 -947 928 -1162 1166 -534 592 -873 1045 -1034
1385 -32 68 -62 125 -67 125 -4 0 -62 -46 -130 -102 -457 -381 -1007 -711
-1517 -911 -91 -35 -174 -67 -184 -71 -18 -6 -19 -14 -13 -110 13 -204 -21
-403 -93 -554 l-39 -83 53 -182 c132 -449 185 -797 173 -1142 -7 -193 -23
-311 -73 -540 -229 -1056 -587 -1863 -1024 -2305 -88 -89 -227 -205 -286 -238
-12 -7 2 -103 91 -607 58 -330 104 -603 102 -608 -1 -4 -22 79 -45 185 -79
354 -224 963 -231 971 -6 6 -128 -43 -178 -71 -6 -4 -43 -69 -83 -145 -278
-539 -778 -1206 -1290 -1718 -334 -335 -640 -564 -978 -734 -219 -109 -508
-216 -761 -281 -73 -19 -139 -38 -145 -42 -6 -4 -76 -56 -156 -116 -722 -542
-1553 -939 -2340 -1121 l-95 -22 -6 -149 c-9 -222 -10 -1014 -1 -1014 18 0
110 -68 154 -114 52 -55 125 -184 133 -237 14 -97 25 -308 31 -599 11 -572
-22 -885 -121 -1129 -100 -245 -318 -412 -652 -497 -242 -61 -512 -74 -1073
-50 -212 8 -452 18 -535 21 -463 18 -749 88 -980 240 -89 58 -222 198 -277
291 l-48 79 -10 355 c-20 631 11 1218 75 1427 44 145 194 253 388 279 l47 7 0
482 c0 265 -3 496 -6 512 -6 30 -7 30 -132 52 -578 102 -959 224 -1401 448
l-184 93 -86 0 c-287 0 -702 55 -1026 136 -544 136 -1003 358 -1480 714 -508
380 -841 798 -1011 1270 l-38 105 -156 0 c-171 0 -215 11 -313 76 -104 69
-262 256 -435 514 -266 397 -425 786 -487 1190 -35 223 -30 583 12 810 13 75
14 90 2 93 -41 13 -264 298 -318 406 -50 101 -91 359 -91 575 0 277 69 667
165 927 50 136 170 378 250 504 208 326 493 641 1022 1129 291 268 289 265
156 275 -333 26 -447 41 -653 82 -600 123 -1180 370 -1755 748 -186 123 -419
296 -560 415 -107 91 -115 97 -115 78z"/>
<path d="M5460 32529 c184 -184 276 -263 400 -345 161 -108 160 -103 -24 87
-132 134 -196 193 -240 217 -75 43 -196 123 -261 175 -27 22 29 -38 125 -134z"/>
<path d="M6345 31771 c97 -100 400 -383 575 -536 1062 -929 2329 -1716 3764
-2337 126 -54 230 -97 231 -96 8 11 40 218 33 218 -15 0 -393 152 -634 255
-1493 639 -2827 1478 -3934 2474 -99 89 -101 90 -35 22z"/>
<path d="M20150 25833 c-226 -22 -389 -92 -446 -190 -39 -65 -52 -146 -66
-399 -14 -267 1 -787 27 -892 60 -248 194 -422 364 -472 38 -11 141 -26 246
-35 776 -66 1398 -37 1754 82 107 36 204 87 234 123 71 83 94 282 78 644 -12
255 -46 748 -57 821 -14 89 -112 204 -217 254 -94 45 -155 51 -361 38 -181
-11 -819 2 -1161 23 -137 9 -325 10 -395 3z"/>
<path d="M29795 21439 c-114 -45 -487 -166 -730 -236 -1518 -437 -3866 -838
-5605 -958 -536 -37 -1061 -40 -1352 -8 -40 4 -58 2 -58 -5 0 -6 414 -1356
920 -2999 507 -1643 923 -2995 925 -3003 4 -12 30 -16 127 -20 459 -19 1104
11 1637 75 39 5 263 33 321 41 575 75 1308 216 1840 354 85 23 166 43 179 46
12 2 89 23 170 45 444 124 955 289 1338 433 230 87 278 101 392 117 72 10 232
9 281 -3 12 -2 17 31 27 212 72 1296 24 2780 -142 4365 -62 585 -192 1556
-210 1561 -5 2 -32 -6 -60 -17z"/>
<path d="M12750 21187 c0 -99 17 -511 35 -872 73 -1411 232 -2785 465 -4005
66 -345 200 -964 212 -975 2 -2 28 4 59 15 145 47 327 49 544 5 319 -65 963
-163 1235 -189 25 -3 106 -11 180 -20 74 -8 173 -17 220 -21 47 -3 96 -7 110
-10 14 -2 75 -7 135 -10 61 -3 124 -8 140 -10 31 -5 170 -12 485 -25 242 -10
1210 -4 1415 9 88 6 203 13 255 16 52 3 113 8 135 10 22 3 74 7 115 10 370 26
964 110 1199 170 55 14 113 25 130 25 17 0 31 2 31 4 0 8 640 4980 646 5018
l6 37 -53 -14 c-28 -8 -77 -17 -108 -20 -31 -4 -83 -17 -116 -30 -163 -63
-399 -87 -860 -88 -460 0 -836 22 -1465 84 -1665 164 -3631 521 -4946 899 -94
27 -179 52 -188 56 -14 5 -16 -4 -16 -69z"/>
<path d="M10855 20193 c99 -98 209 -200 244 -227 l64 -50 -6 40 c-4 21 -7 62
-7 89 l0 50 -152 78 c-84 42 -191 105 -238 138 -85 61 -85 61 95 -118z"/>
<path d="M21586 15911 l-18 -150 36 -108 c47 -143 80 -286 108 -463 19 -125
22 -187 22 -455 1 -457 -43 -798 -165 -1264 -128 -495 -311 -863 -565 -1141
l-50 -55 7 -450 c9 -553 25 -1222 41 -1700 6 -198 12 -486 12 -640 1 -255 -1
-290 -22 -393 -28 -139 -70 -268 -126 -387 -89 -189 -324 -555 -651 -1015 -92
-129 -207 -293 -255 -365 -48 -71 -107 -156 -131 -187 -24 -32 -66 -95 -92
-140 -60 -104 -256 -385 -443 -634 -514 -688 -1057 -1248 -1609 -1664 -461
-346 -977 -622 -1468 -784 -476 -158 -1027 -260 -1589 -297 -240 -15 -898 -6
-1123 15 -715 70 -1393 219 -2007 442 -319 115 -483 194 -630 301 -49 35 -23
6 117 -133 251 -249 371 -335 620 -444 681 -296 1669 -519 2532 -571 254 -15
863 -7 1083 15 490 49 948 142 1354 273 1037 336 1982 1046 2882 2163 219 272
599 798 678 939 22 40 57 95 78 121 20 26 83 116 141 201 57 85 180 260 272
389 299 419 527 774 620 965 90 185 151 418 162 619 3 61 -2 343 -11 626 -20
638 -34 1240 -45 1865 l-8 480 48 53 c176 192 368 517 459 777 48 138 114 373
153 550 68 302 79 383 87 635 4 132 15 285 25 350 l17 115 -257 835 c-142 459
-260 841 -264 848 -4 7 -15 -55 -25 -137z"/>
<path d="M19130 13193 c-678 -176 -1383 -254 -2300 -254 -809 0 -1530 55
-2464 187 -136 19 -249 34 -251 32 -1 -2 8 -83 21 -180 30 -236 69 -634 94
-953 21 -278 50 -720 50 -771 0 -28 -25 -55 -242 -256 -377 -348 -763 -698
-1243 -1125 -242 -215 -461 -418 -486 -450 -350 -440 -578 -1278 -630 -2308
-10 -200 -6 -606 6 -670 2 -11 7 -60 11 -110 9 -118 17 -186 29 -245 6 -30 27
-131 30 -145 10 -48 43 -149 70 -216 7 -19 22 -26 174 -83 224 -84 425 -145
671 -205 748 -180 1423 -230 2115 -155 205 22 213 23 547 89 133 27 432 120
568 177 636 269 1204 726 1814 1463 126 152 385 494 513 680 86 125 90 133
102 210 24 158 93 400 121 429 6 6 26 -26 52 -79 35 -74 44 -85 52 -70 10 16
155 224 476 682 140 199 269 397 322 493 27 50 26 24 14 380 -14 422 -17 518
-26 875 -13 491 -30 1445 -38 2095 l-7 525 -165 -42z m-5771 -3331 c-8 -11
-54 -72 -103 -136 -205 -271 -350 -559 -440 -873 -129 -450 -117 -979 32
-1400 19 -54 25 -83 17 -83 -24 0 -157 50 -217 82 -90 47 -214 173 -261 265
-69 132 -100 326 -79 483 6 41 18 129 27 195 37 286 124 514 285 755 125 187
277 357 461 514 94 81 273 216 286 216 3 0 -1 -8 -8 -18z"/>
<path d="M29680 12989 c-1822 -593 -3473 -854 -4704 -744 -93 8 -172 13 -174
10 -3 -3 9 -92 27 -197 128 -767 393 -2483 425 -2753 2 -22 14 -103 25 -180
11 -77 23 -158 26 -180 6 -48 10 -77 24 -170 6 -38 13 -86 15 -105 3 -19 10
-73 17 -120 l11 -85 86 -100 c71 -82 924 -954 942 -962 3 -2 16 36 30 85 14
48 30 87 35 87 17 0 150 -278 185 -385 l33 -100 206 -202 c573 -564 1019 -917
1541 -1219 73 -42 344 -179 354 -179 3 0 29 -11 58 -25 146 -67 337 -132 533
-181 157 -39 153 -38 290 -58 332 -49 843 -56 1170 -16 44 5 100 11 125 14 68
8 246 35 293 45 23 5 58 12 77 15 104 16 354 79 570 142 484 142 1070 399
1482 650 75 45 83 95 82 479 0 210 -5 293 -23 430 -141 1063 -554 2130 -1008
2606 -114 119 -164 155 -543 389 -603 373 -1286 807 -1691 1073 l-116 77 -12
102 c-72 641 -115 1135 -141 1618 -5 102 -10 191 -10 198 0 6 -6 12 -12 11 -7
0 -110 -32 -228 -70z m1695 -3108 c566 -291 966 -723 1101 -1190 13 -47 35
-115 49 -152 60 -168 71 -397 26 -539 -48 -150 -161 -286 -316 -377 -91 -54
-122 -65 -112 -38 37 94 53 517 28 705 -83 621 -373 1157 -866 1598 -44 40
-76 72 -71 72 5 0 77 -35 161 -79z"/>
<path d="M12549 11977 c26 -28 31 -32 31 -19 0 4 -13 16 -28 26 l-27 19 24
-26z"/>
<path d="M23280 11057 c47 -50 50 -52 50 -38 0 5 -21 26 -47 46 l-48 38 45
-46z"/>
<path d="M33756 10580 c105 -119 257 -333 379 -534 682 -1130 1112 -2968 949
-4059 -49 -330 -134 -567 -283 -789 -152 -225 -307 -369 -574 -532 -734 -450
-1647 -807 -2518 -985 -477 -97 -789 -131 -1285 -138 -394 -6 -586 2 -874 38
-1002 123 -1994 582 -2984 1382 -154 125 -368 309 -471 406 -42 40 -48 43 -20
13 66 -71 460 -441 608 -571 1071 -935 2139 -1470 3222 -1615 256 -34 393 -41
820 -41 375 1 456 4 635 23 684 74 1301 222 1945 464 563 212 1194 533 1511
769 119 89 283 261 366 385 71 105 163 288 197 391 107 321 149 743 121 1203
-69 1102 -456 2396 -975 3256 -199 328 -389 568 -672 844 -70 69 -114 109 -97
90z"/>
</g>
</svg>
